<svg xmlns="http://www.w3.org/2000/svg" xmlns:xlink="http://www.w3.org/1999/xlink" width="119.04" height="120.693" viewBox="0 0 119.04 120.693">
  <defs>
    <clipPath id="clip-path">
      <rect id="Rectangle_30" data-name="Rectangle 30" width="119.04" height="120.693" fill="#aad82b" stroke="#707070" stroke-width="1"/>
    </clipPath>
  </defs>
  <g id="Mask_Group_3" data-name="Mask Group 3" clip-path="url(#clip-path)">
    <g id="user" transform="translate(0 6.498)">
      <path id="Path_11" data-name="Path 11" d="M98.111,66.454a20.919,20.919,0,0,0-17.249,9.091,2.522,2.522,0,0,0-.235-.157L73,70.986A14.409,14.409,0,0,0,61.845,51.66v-8.8a2.38,2.38,0,0,0-.058-.512A20.93,20.93,0,0,0,70.848,3.938a2.325,2.325,0,1,0-2.519,3.908A16.267,16.267,0,0,1,73.5,29.872a7.615,7.615,0,0,0-5.765-4.908l-.1-.017a8.352,8.352,0,0,0,.261-2.073V20.454a8.375,8.375,0,1,0-16.75,0v2.419a8.346,8.346,0,0,0,.26,2.073l-.1.017a7.612,7.612,0,0,0-5.764,4.908A16.267,16.267,0,0,1,50.758,7.817,2.325,2.325,0,0,0,48.25,3.9a20.93,20.93,0,0,0,9,38.442,2.324,2.324,0,0,0-.058.512v8.8A14.409,14.409,0,0,0,46.038,70.986l-7.625,4.4a2.34,2.34,0,0,0-.234.157,20.826,20.826,0,1,0,2.172,4.043,2.255,2.255,0,0,0,.387-.173l7.629-4.4a14.4,14.4,0,0,0,22.307,0l7.629,4.4a2.255,2.255,0,0,0,.387.173A20.928,20.928,0,1,0,98.111,66.454ZM11.153,100.389v-2.1a2.959,2.959,0,0,1,2.416-2.908l1.866-.348a8.35,8.35,0,0,0,10.985,0l1.866.348A2.959,2.959,0,0,1,30.7,98.288v2.1a16.238,16.238,0,0,1-19.549,0Zm13.5-11.672a3.725,3.725,0,1,1-7.45,0V86.3a3.725,3.725,0,1,1,7.45,0Zm10.252,7a7.61,7.61,0,0,0-5.765-4.907l-.1-.018a8.389,8.389,0,0,0,.26-2.073V86.3a8.375,8.375,0,0,0-16.75,0v2.419a8.346,8.346,0,0,0,.261,2.073l-.1.018a7.612,7.612,0,0,0-5.765,4.907,16.278,16.278,0,1,1,27.953,0ZM55.8,20.454a3.725,3.725,0,1,1,7.449,0v2.419a3.725,3.725,0,1,1-7.449,0Zm-3.634,9.082,1.866-.348a8.348,8.348,0,0,0,10.984,0l1.866.348a2.958,2.958,0,0,1,2.416,2.908v2.1a16.238,16.238,0,0,1-19.549,0v-2.1a2.959,2.959,0,0,1,2.417-2.908ZM59.52,75.654a9.767,9.767,0,1,1,9.767-9.767A9.778,9.778,0,0,1,59.52,75.654Zm28.817,24.736v-2.1a2.959,2.959,0,0,1,2.416-2.908l1.866-.348a8.35,8.35,0,0,0,10.985,0l1.866.348a2.959,2.959,0,0,1,2.416,2.908v2.1a16.238,16.238,0,0,1-19.549,0Zm13.5-11.672a3.725,3.725,0,1,1-7.45,0V86.3a3.725,3.725,0,1,1,7.45,0Zm10.251,7a7.612,7.612,0,0,0-5.764-4.907l-.1-.018a8.389,8.389,0,0,0,.26-2.073V86.3a8.375,8.375,0,0,0-16.75,0v2.419A8.346,8.346,0,0,0,90,90.791l-.1.018a7.612,7.612,0,0,0-5.765,4.907,16.279,16.279,0,1,1,27.952,0Zm0,0" transform="translate(0 -0.613)" fill="#aad82b"/>
      <path id="Path_12" data-name="Path 12" d="M71.512,76.15a2.323,2.323,0,1,0,1.644.679A2.338,2.338,0,0,0,71.512,76.15Zm0,0" transform="translate(-11.992 -13.199)" fill="#aad82b"/>
      <path id="Path_13" data-name="Path 13" d="M71.512,4.653a2.325,2.325,0,0,0,2.325-2.325V2.322a2.325,2.325,0,1,0-2.325,2.33Zm0,0" transform="translate(-11.992 0)" fill="#aad82b"/>
    </g>
  </g>
</svg>
