<svg xmlns="http://www.w3.org/2000/svg" xmlns:xlink="http://www.w3.org/1999/xlink" width="119.04" height="120.693" viewBox="0 0 119.04 120.693">
  <defs>
    <clipPath id="clip-path">
      <rect id="Rectangle_29" data-name="Rectangle 29" width="119.04" height="120.693" fill="#AAD82B" stroke="#707070" stroke-width="1"/>
    </clipPath>
  </defs>
  <g id="Mask_Group_2" data-name="Mask Group 2" clip-path="url(#clip-path)">
    <g id="money_1_" data-name="money (1)" transform="translate(24.161 0)">
      <path id="Path_7" data-name="Path 7" d="M37.373,123.72a25.93,25.93,0,1,0-25.93-25.93A25.96,25.96,0,0,0,37.373,123.72Zm0-47.146A21.216,21.216,0,1,1,16.158,97.79,21.24,21.24,0,0,1,37.373,76.574Zm0,0" transform="translate(-1.983 -12.456)" fill="#aad82b"/>
      <path id="Path_8" data-name="Path 8" d="M53.1,54.6A18.884,18.884,0,0,0,70.087,35.831V33.474a2.358,2.358,0,0,0-2.357-2.357H52.171A18.815,18.815,0,0,0,38,37.556V26.873H51.905A11.8,11.8,0,0,0,63.692,15.087V11.669a2.357,2.357,0,0,0-2.357-2.357H45.069a11.722,11.722,0,0,0-7.257,2.509A14.111,14.111,0,0,0,23.908,0H12.176A2.357,2.357,0,0,0,9.818,2.357,14.105,14.105,0,0,0,23.908,16.447h9.375V29.034a18.815,18.815,0,0,0-14.144-6.4H5.466a2.357,2.357,0,0,0-2.357,2.357v.471A18.879,18.879,0,0,0,21.967,44.317H33.282v5.735a35,35,0,0,0-19.01,7.107A35.619,35.619,0,0,0,1.715,75.336a2.357,2.357,0,0,0,4.522,1.331A30.644,30.644,0,1,1,6.237,94a2.357,2.357,0,1,0-4.522,1.331A35.625,35.625,0,0,0,14.273,113.51,35.357,35.357,0,1,0,53.1,54.6ZM21.968,39.6A14.165,14.165,0,0,1,7.949,27.345h11.19A14.165,14.165,0,0,1,33.157,39.6Zm30.2-3.772h13.2A14.16,14.16,0,0,1,51.228,49.975h-13.2A14.159,14.159,0,0,1,52.171,35.831Zm-7.1-21.8H58.977v1.061a7.08,7.08,0,0,1-7.072,7.072H38V21.1A7.08,7.08,0,0,1,45.069,14.026ZM23.908,11.732a9.391,9.391,0,0,1-9.075-7.018h9.075a9.391,9.391,0,0,1,9.075,7.018Zm0,0" transform="translate(-0.28 0)" fill="#aad82b"/>
      <path id="Path_9" data-name="Path 9" d="M41.2,107.475a2.625,2.625,0,0,1-2.829-2.349,2.357,2.357,0,0,0-4.715,0,7.137,7.137,0,0,0,5.188,6.71,2.355,2.355,0,0,0,4.71,0,7.138,7.138,0,0,0,5.189-6.71A7.324,7.324,0,0,0,41.2,98.062a2.39,2.39,0,1,1,0-4.7,2.626,2.626,0,0,1,2.829,2.349,2.357,2.357,0,0,0,4.715,0A7.137,7.137,0,0,0,43.556,89v-.136a2.357,2.357,0,0,0-4.715,0V89a7.136,7.136,0,0,0-5.186,6.708,7.324,7.324,0,0,0,7.543,7.065,2.39,2.39,0,1,1,0,4.7Zm0,0" transform="translate(-5.834 -14.995)" fill="#aad82b"/>
      <path id="Path_10" data-name="Path 10" d="M4.024,104.4a2.357,2.357,0,0,0-1.667-4.024A2.357,2.357,0,1,0,4.024,104.4Zm0,0" transform="translate(0 -17.398)" fill="#aad82b"/>
    </g>
  </g>
</svg>
