<?xml version="1.0" encoding="iso-8859-1"?>
<!-- Generator: Adobe Illustrator 19.0.0, SVG Export Plug-In . SVG Version: 6.00 Build 0)  -->
<svg version="1.1" id="Capa_1" xmlns="http://www.w3.org/2000/svg" xmlns:xlink="http://www.w3.org/1999/xlink" x="0px" y="0px"
	 viewBox="0 0 511.999 511.999" style="enable-background:new 0 0 511.999 511.999;" xml:space="preserve">
<g>
	<g>
		<path d="M511.131,24.688c-0.357-7.596-6.354-13.594-13.952-13.952c-8.418-0.396-22.236-0.868-40.255-0.868
			c-24.065,0-48.231,0.842-71.826,2.503c-10.615,0.747-17.027,12.706-11.698,21.948c8.489,14.725,16.211,28.844,22.954,41.965
			c2.314,4.503,0.498,10.17-3.997,12.48c-4.485,2.305-10.194,0.487-12.497-4.008c-9.433-18.344-20.761-38.554-33.672-60.067
			c-2.943-4.904-8.788-7.746-14.463-7c-13.959,1.828-27.618,3.984-40.599,6.41c-10.7,2-15.541,15.121-8.715,23.603
			c14.175,17.613,27.05,34.559,38.269,50.367c3.815,5.376,2.502,13.025-2.863,16.831c-5.312,3.769-13.042,2.382-16.824-2.856
			c-18.654-26.294-39.532-52.101-53.761-69.121c-3.688-4.411-9.895-6.295-15.406-4.655c-14.691,4.37-28.664,9.288-41.532,14.618
			c-8.9,3.686-11.919,15.211-5.868,22.743c13.975,17.394,26.617,34.045,37.578,49.489c3.799,5.353,2.472,13.046-2.864,16.831
			c-5.304,3.762-13.082,2.443-16.831-2.862c-12.335-17.399-26.966-36.469-43.484-56.679c-4.695-5.744-13.224-7.05-19.419-2.968
			c-12.619,8.315-23.932,17.446-33.625,27.14c-5.935,5.935-11.624,12.018-16.911,18.081c-5.777,6.625-4.25,17.166,3.107,21.924
			c20.719,13.398,39.697,26.475,56.405,38.867c6.493,4.816,7.875,14.321,3.07,20.798c-4.824,6.504-14.293,7.898-20.789,3.078
			c-16.517-12.254-35.65-25.394-56.869-39.056c-7.052-4.54-16.791-2.094-20.804,5.279c-8.257,15.166-14.458,30.509-18.433,45.604
			c-1.607,6.106,0.862,12.534,6.146,15.994c18.109,11.864,34.835,23.472,49.712,34.502c6.491,4.812,7.894,14.313,3.086,20.796
			c-4.831,6.514-14.3,7.905-20.806,3.078c-4.734-3.511-9.708-7.114-14.782-10.71c-11.273-7.989-26.727,3.454-22.407,16.591
			c8.678,26.393,26.258,48.928,50.849,65.175c3.421,2.26,3.103,7.684-0.696,9.372c-54.758,24.371-83.623,79.398-84.825,81.729
			c-1.125,2.182-1.111,4.776,0.038,6.946c18.895,35.696,54.409,37.503,61.339,37.503c0.636,0.005,1.272-0.038,1.893-0.127
			c3.317-0.479,6.196-2.288,6.903-5.996c7.125-37.407,27.417-64.367,43.187-80.398c4.716-4.794,12.801-3.12,15.621,2.833
			c18.244,38.496,51.997,63.99,95.042,71.787c6.296,1.142,12.663-2.025,15.607-7.69c2.529-4.866,2.142-10.679-1.011-15.17
			c-4.463-6.358-8.875-12.479-13.113-18.194c-4.887-6.588-3.506-15.921,3.077-20.805c6.434-4.773,16.028-3.347,20.799,3.086
			c10.727,14.457,22.099,30.82,33.801,48.634c3.432,5.224,10.033,7.734,16.065,6.109c15.275-4.11,30.595-10.169,45.534-18.01
			c3.612-1.896,6.281-5.252,7.322-9.207c1.048-3.982,0.37-8.25-1.862-11.711c-13.451-20.863-26.417-39.725-38.538-56.064
			c-4.831-6.513-3.423-15.969,3.079-20.79c6.518-4.833,15.965-3.445,20.797,3.07c12.346,16.646,25.402,35.595,38.805,56.32
			c2.715,4.199,7.324,6.705,12.328,6.705c3.482,0,6.857-1.249,9.503-3.517c6.192-5.31,12.328-10.998,18.235-16.906
			c9.695-9.695,18.826-21.008,27.139-33.625c4.15-6.297,2.875-14.645-2.967-19.419c-20.22-16.525-39.29-31.155-56.688-43.49
			c-5.377-3.804-6.664-11.455-2.855-16.825c3.806-5.365,11.471-6.666,16.832-2.866c15.442,10.959,32.093,23.603,49.49,37.58
			c2.592,2.083,5.841,3.229,9.148,3.229c5.969,0,11.305-3.571,13.595-9.097c5.329-12.865,10.248-26.838,14.619-41.533
			c1.666-5.601-0.162-11.647-4.655-15.405c-24.76-20.701-48.016-38.789-69.073-53.728c-5.365-3.869-6.768-11.409-2.904-16.857
			c3.797-5.352,11.485-6.658,16.83-2.866c15.813,11.223,32.76,24.098,50.369,38.27c2.638,2.123,5.807,3.245,9.167,3.244
			c7.07,0,13.141-5.03,14.436-11.959c2.425-12.979,4.582-26.638,6.41-40.601c0.756-5.78-1.992-11.456-7-14.461
			c-21.512-12.909-41.721-24.238-60.077-33.677c-4.499-2.313-6.312-7.984-4.001-12.488c2.302-4.489,8.015-6.302,12.485-4.001
			c13.125,6.745,27.243,14.467,41.963,22.953c2.233,1.287,4.759,1.967,7.306,1.967c7.671-0.001,14.103-6.003,14.642-13.666
			C513.233,83.681,511.884,40.702,511.131,24.688z M494.566,135.206c-14.759-8.5-28.93-16.246-42.126-23.027
			c-11.793-6.066-26.63-1.295-32.686,10.488c-6.04,11.753-1.243,26.671,10.493,32.686c18.003,9.257,37.861,20.387,59.023,33.082
			c-1.759,13.406-3.826,26.518-6.145,38.987c-17.686-14.221-34.725-27.159-50.651-38.463c-12.036-8.542-29.204-5.619-37.745,6.417
			c-8.556,12.058-5.489,29.159,6.41,37.739c20.44,14.501,43.954,32.789,68.007,52.891c-4.164,13.971-8.832,27.244-13.876,39.461
			c-17.5-14.05-34.268-26.776-49.849-37.833c-4.604-3.266-10.014-4.992-15.645-4.992c-8.769,0-17.03,4.266-22.1,11.412
			c-7.664,10.804-6.434,25.438,2.925,34.796c1.083,1.084,2.262,2.078,3.496,2.951c17.046,12.084,35.759,26.439,55.628,42.669
			c-7.711,11.668-16.138,22.102-25.052,31.015c-5.537,5.538-11.28,10.87-17.075,15.853c-13.502-20.866-26.67-39.969-39.141-56.783
			c-9.689-13.064-28.75-15.849-41.78-6.183c-13.055,9.684-15.864,28.736-6.191,41.775c11.869,16,24.58,34.487,37.786,54.958
			c-13.794,7.208-27.899,12.782-41.85,16.561c-11.813-17.976-23.307-34.51-34.163-49.141c-9.675-13.039-28.76-15.857-41.782-6.198
			c-13.227,9.812-16.003,28.559-6.19,41.788c4.009,5.406,8.18,11.188,12.413,17.206c-37.762-7.085-67.333-29.538-83.333-63.298
			c-4.164-8.791-12.769-14.252-22.455-14.252c-6.586,0-12.772,2.602-17.417,7.325c-16.328,16.599-37.105,43.972-45.892,81.791
			c-9.47-0.974-28.993-5.497-41.492-25.795c7.069-12.079,33.181-52.531,75.641-71.428c7.278-3.235,11.981-10.438,11.981-18.351
			v-0.444c-0.001-6.762-3.415-13.047-9.123-16.805c-21.435-14.162-36.817-33.643-44.55-56.422c4.701,3.339,9.304,6.679,13.695,9.935
			c13.039,9.669,32.124,6.845,41.79-6.188c9.708-13.089,6.856-32.101-6.198-41.783c-15.053-11.16-31.95-22.89-50.223-34.866
			c3.64-13.736,9.306-27.749,16.847-41.659c20.822,13.413,39.579,26.297,55.753,38.298c13.059,9.688,32.091,6.868,41.774-6.188
			c9.71-13.093,6.888-32.089-6.181-41.782c-16.876-12.517-36.007-25.705-56.866-39.202c4.985-5.702,10.344-11.424,15.935-17.016
			c8.913-8.913,19.346-17.34,31.015-25.051c16.224,19.86,30.579,38.574,42.664,55.619c8.518,12.015,25.765,14.933,37.751,6.431
			c12.047-8.545,14.971-25.693,6.419-37.746c-11.058-15.583-23.785-32.351-37.832-49.848c12.22-5.045,25.493-9.712,39.461-13.875
			c14.052,16.813,34.585,42.203,52.927,68.056c8.482,11.955,25.799,14.805,37.7,6.363c12.036-8.538,14.947-25.727,6.419-37.747
			c-11.3-15.922-24.239-32.961-38.463-50.651c12.485-2.321,25.61-4.39,38.985-6.147c12.696,21.165,23.827,41.022,33.078,59.014
			c6.035,11.737,20.984,16.511,32.694,10.504c11.774-6.041,16.538-20.919,10.487-32.682c-6.78-13.193-14.525-27.363-23.028-42.128
			c23.082-1.612,46.717-2.43,70.258-2.43c17.506,0,30.953,0.452,39.238,0.836C496.9,41.647,498.178,83.488,494.566,135.206z"/>
	</g>
</g>
<g>
	<g>
		<path d="M218.19,186.45c-2.929-2.929-7.678-2.929-10.606,0l-10.608,10.608c-2.929,2.929-2.929,7.678,0,10.606
			c1.419,1.419,3.355,2.153,5.302,2.157c1.919,0.004,3.849-0.701,5.304-2.157l10.608-10.608
			C221.119,194.127,221.119,189.378,218.19,186.45z"/>
	</g>
</g>
<g>
	<g>
		<path d="M335.42,303.68c-2.929-2.93-7.678-2.929-10.606,0l-10.608,10.608c-2.929,2.929-2.929,7.678,0,10.607
			c1.447,1.447,3.376,2.171,5.303,2.17c1.928,0,3.856-0.724,5.303-2.171l10.608-10.608
			C338.349,311.357,338.349,306.608,335.42,303.68z"/>
	</g>
</g>
<g>
	<g>
		<path d="M283.581,274.202c-0.278-4.132-3.84-7.266-7.986-6.98c-5.456,0.368-10.953-1.778-15.062-5.887
			c-4.108-4.108-6.253-9.598-5.887-15.062c0.278-4.133-2.847-7.708-6.98-7.986c-4.146-0.28-7.708,2.848-7.986,6.98
			c-0.658,9.783,3.077,19.505,10.246,26.674c6.629,6.628,15.44,10.321,24.463,10.321
			C279.195,282.262,283.952,279.72,283.581,274.202z"/>
	</g>
</g>
<g>
</g>
<g>
</g>
<g>
</g>
<g>
</g>
<g>
</g>
<g>
</g>
<g>
</g>
<g>
</g>
<g>
</g>
<g>
</g>
<g>
</g>
<g>
</g>
<g>
</g>
<g>
</g>
<g>
</g>
</svg>
