<svg xmlns="http://www.w3.org/2000/svg" xmlns:xlink="http://www.w3.org/1999/xlink" width="119.04" height="117.387" viewBox="0 0 119.04 117.387">
  <defs>
    <clipPath id="clip-path">
      <rect id="Rectangle_28" data-name="Rectangle 28" width="119.04" height="117.387" fill="#aad82b" stroke="#707070" stroke-width="1"/>
    </clipPath>
  </defs>
  <g id="Mask_Group_1" data-name="Mask Group 1" clip-path="url(#clip-path)">
    <g id="flowers" transform="translate(6.79 0)">
      <path id="Path_1" data-name="Path 1" d="M52.195,91.266a26.682,26.682,0,0,0-3.521-1.688,26.681,26.681,0,0,0,3.521-1.688c3.307-1.909,5.627-4.31,6.71-6.941a8.9,8.9,0,0,0-7.077-12.258c-2.82-.379-6.06.431-9.366,2.339a26.716,26.716,0,0,0-3.222,2.2,26.72,26.72,0,0,0,.3-3.893c0-9.439-5.244-12.787-9.734-12.787S20.07,59.9,20.07,69.342a26.721,26.721,0,0,0,.3,3.893,26.785,26.785,0,0,0-3.222-2.2A20.538,20.538,0,0,0,13.638,69.4a2.293,2.293,0,0,0-1.5,4.333A15.853,15.853,0,0,1,14.853,75a23.078,23.078,0,0,1,5.7,4.705A13.6,13.6,0,0,0,19.4,80.925l-6.352-3.667A2.293,2.293,0,1,0,10.76,81.23L17.1,84.893a13.409,13.409,0,0,0-.48,1.611,23.059,23.059,0,0,1-6.919-2.586,15.768,15.768,0,0,1-2.514-1.771,2.293,2.293,0,0,0-3.024,3.447,20.376,20.376,0,0,0,3.245,2.3,26.681,26.681,0,0,0,3.521,1.688,26.681,26.681,0,0,0-3.521,1.688C-.761,95.985-1.04,102.2,1.2,106.09a8.777,8.777,0,0,0,6.575,4.375,10.383,10.383,0,0,0,1.387.091,16.242,16.242,0,0,0,7.979-2.432,26.579,26.579,0,0,0,3.222-2.2,26.74,26.74,0,0,0-.3,3.893c0,7.857,3.633,11.491,7.441,12.49v2.591a2.293,2.293,0,1,0,4.585,0V122.3c3.808-1,7.441-4.633,7.441-12.49a26.73,26.73,0,0,0-.3-3.893,26.51,26.51,0,0,0,3.222,2.2,16.249,16.249,0,0,0,7.979,2.432,10.392,10.392,0,0,0,1.387-.091A8.774,8.774,0,0,0,58.4,106.09c2.245-3.889,1.967-10.1-6.207-14.824ZM29.8,98.528a8.951,8.951,0,1,1,8.951-8.951A8.96,8.96,0,0,1,29.8,98.528ZM44.754,75a10.668,10.668,0,0,1,6.463-1.766A4.311,4.311,0,0,1,54.664,79.2,10.672,10.672,0,0,1,49.9,83.918,23.067,23.067,0,0,1,42.983,86.5a13.409,13.409,0,0,0-.48-1.611l6.344-3.663a2.293,2.293,0,0,0-2.293-3.971L40.2,80.925a13.609,13.609,0,0,0-1.154-1.219A23.082,23.082,0,0,1,44.754,75ZM29.8,61.14c3.176,0,5.149,3.143,5.149,8.2a23.082,23.082,0,0,1-1.22,7.284A13.458,13.458,0,0,0,32.1,76.24V68.912a2.293,2.293,0,1,0-4.585,0V76.24a13.4,13.4,0,0,0-1.635.385,23.057,23.057,0,0,1-1.22-7.284c0-5.059,1.972-8.2,5.148-8.2Zm-14.95,43.014A10.674,10.674,0,0,1,8.39,105.92,4.172,4.172,0,0,1,5.176,103.8c-1.588-2.75.148-6.031,4.529-8.56a23.088,23.088,0,0,1,6.92-2.586,13.346,13.346,0,0,0,.48,1.61L10.76,97.925a2.292,2.292,0,1,0,2.293,3.97L19.4,98.229a13.608,13.608,0,0,0,1.153,1.22,23.077,23.077,0,0,1-5.7,4.705ZM29.8,118.015c-3.176,0-5.148-3.143-5.148-8.2a23.057,23.057,0,0,1,1.22-7.284,13.241,13.241,0,0,0,1.635.385v7.33a2.293,2.293,0,0,0,4.585,0v-7.33a13.293,13.293,0,0,0,1.636-.385,23.082,23.082,0,0,1,1.22,7.284c0,5.059-1.973,8.2-5.149,8.2ZM54.431,103.8a4.171,4.171,0,0,1-3.213,2.123,10.681,10.681,0,0,1-6.464-1.766,23.1,23.1,0,0,1-5.7-4.705A13.736,13.736,0,0,0,40.2,98.23l6.351,3.667a2.293,2.293,0,1,0,2.293-3.971L42.5,94.262a13.315,13.315,0,0,0,.481-1.611A23.092,23.092,0,0,1,49.9,95.237c4.381,2.53,6.117,5.81,4.529,8.56Zm0,0" transform="translate(0 -9.803)" fill="#aad82b"/>
      <path id="Path_2" data-name="Path 2" d="M114.371,41.653c-1.083-2.632-3.4-5.032-6.71-6.942a26.681,26.681,0,0,0-3.521-1.688,26.681,26.681,0,0,0,3.521-1.688c8.174-4.719,8.453-10.935,6.207-14.823a8.772,8.772,0,0,0-6.575-4.376c-2.821-.379-6.059.431-9.366,2.34a26.674,26.674,0,0,0-3.222,2.2,26.587,26.587,0,0,0,.3-3.893C95,3.349,89.76,0,85.27,0s-9.733,3.349-9.733,12.787a26.722,26.722,0,0,0,.3,3.893,26.715,26.715,0,0,0-3.222-2.2c-3.307-1.909-6.545-2.718-9.366-2.339a8.777,8.777,0,0,0-6.575,4.375c-2.244,3.889-1.966,10.1,6.208,14.824A26.681,26.681,0,0,0,66.4,33.023a26.569,26.569,0,0,0-3.521,1.688c-8.174,4.719-8.453,10.934-6.208,14.823a8.776,8.776,0,0,0,6.575,4.376,10.383,10.383,0,0,0,1.387.09,16.247,16.247,0,0,0,7.979-2.431,26.612,26.612,0,0,0,3.222-2.2,26.731,26.731,0,0,0-.3,3.893c0,7.857,3.633,11.491,7.441,12.49V85.96a2.293,2.293,0,1,0,4.585,0v-.285a12.669,12.669,0,0,0,9.743-1.246c6.052-3.495,7.242-8.749,5.288-12.133s-7.1-4.981-13.153-1.486a12.744,12.744,0,0,0-1.878,1.324V65.752a8.816,8.816,0,0,0,4.784-3.213C94.085,60.286,95,57.077,95,53.258a26.731,26.731,0,0,0-.3-3.893,26.611,26.611,0,0,0,3.222,2.2A16.249,16.249,0,0,0,105.907,54a10.383,10.383,0,0,0,1.387-.09,8.894,8.894,0,0,0,7.077-12.257ZM91.734,74.781c3.446-1.99,6.074-1.6,6.889-.192s-.165,3.88-3.611,5.87a8.11,8.11,0,0,1-7.288.423A8.109,8.109,0,0,1,91.734,74.781ZM85.27,41.973a8.95,8.95,0,1,1,8.951-8.95A8.96,8.96,0,0,1,85.27,41.973Zm14.951-23.526a10.679,10.679,0,0,1,6.463-1.766A4.174,4.174,0,0,1,109.9,18.8c1.588,2.75-.148,6.031-4.53,8.56a23.083,23.083,0,0,1-6.919,2.586,13.347,13.347,0,0,0-.48-1.61l6.344-3.663a2.293,2.293,0,0,0-2.293-3.971L95.67,24.372a13.739,13.739,0,0,0-1.154-1.22,23.1,23.1,0,0,1,5.7-4.705ZM85.27,4.585c3.176,0,5.149,3.143,5.149,8.2a23.082,23.082,0,0,1-1.22,7.284,13.216,13.216,0,0,0-1.636-.385V12.357a2.293,2.293,0,0,0-4.585,0v7.329a13.241,13.241,0,0,0-1.635.385,23.082,23.082,0,0,1-1.22-7.284c0-5.059,1.973-8.2,5.148-8.2ZM60.642,18.8a4.173,4.173,0,0,1,3.214-2.123,10.682,10.682,0,0,1,6.463,1.766,23.078,23.078,0,0,1,5.7,4.705,13.489,13.489,0,0,0-1.153,1.22L68.52,20.705a2.292,2.292,0,1,0-2.293,3.97l6.344,3.664a13.345,13.345,0,0,0-.48,1.61,23.088,23.088,0,0,1-6.92-2.586c-4.381-2.529-6.116-5.81-4.529-8.56ZM70.32,47.6a10.666,10.666,0,0,1-6.463,1.766,4.17,4.17,0,0,1-3.213-2.124c-1.588-2.75.147-6.03,4.529-8.559A23.026,23.026,0,0,1,72.091,36.1a13.346,13.346,0,0,0,.48,1.61l-6.344,3.664a2.292,2.292,0,1,0,2.293,3.97l6.351-3.667a13.619,13.619,0,0,0,1.154,1.22,23.1,23.1,0,0,1-5.7,4.705ZM85.27,61.461c-3.175,0-5.148-3.143-5.148-8.2a23.082,23.082,0,0,1,1.22-7.284,13.547,13.547,0,0,0,1.636.385v7.329a2.293,2.293,0,1,0,4.585,0V46.36a13.573,13.573,0,0,0,1.635-.385,23.082,23.082,0,0,1,1.22,7.284c0,5.059-1.973,8.2-5.149,8.2ZM109.9,47.242a4.174,4.174,0,0,1-3.214,2.123,10.668,10.668,0,0,1-6.463-1.766,23.1,23.1,0,0,1-5.7-4.705,13.609,13.609,0,0,0,1.154-1.219l6.351,3.667a2.293,2.293,0,1,0,2.293-3.971l-6.344-3.663a13.361,13.361,0,0,0,.48-1.611,23.083,23.083,0,0,1,6.919,2.586,10.672,10.672,0,0,1,4.762,4.714,4.175,4.175,0,0,1-.232,3.846Zm0,0" transform="translate(-9.614 0)" fill="#aad82b"/>
      <path id="Path_3" data-name="Path 3" d="M87.7,122.992a2.292,2.292,0,0,0-2.155,1.518,12.883,12.883,0,0,0-2.045-1.467,12.637,12.637,0,0,0-7.717-1.916,7.124,7.124,0,0,0-5.435,3.4c-1.953,3.384-.764,8.639,5.288,12.133a12.665,12.665,0,0,0,10.44,1.03,2.293,2.293,0,0,0,3.917-1.618V125.285a2.3,2.3,0,0,0-2.294-2.294Zm-9.771,9.7c-3.446-1.99-4.424-4.459-3.61-5.87a2.794,2.794,0,0,1,2.561-1.18,8.932,8.932,0,0,1,4.328,1.372,8.109,8.109,0,0,1,4.01,6.1A8.109,8.109,0,0,1,77.929,132.692Zm0,0" transform="translate(-12.044 -20.984)" fill="#aad82b"/>
      <path id="Path_4" data-name="Path 4" d="M91.038,112.3a2.293,2.293,0,1,0,2.293,2.294v0A2.292,2.292,0,0,0,91.038,112.3Zm0,0" transform="translate(-15.382 -19.466)" fill="#aad82b"/>
      <path id="Path_5" data-name="Path 5" d="M2.24,79.426a2.292,2.292,0,0,0,3.127-.853v0a2.292,2.292,0,1,0-3.128.855Zm0,0" transform="translate(-0.188 -13.025)" fill="#aad82b"/>
    </g>
  </g>
</svg>
